<?xml version="1.0" encoding="utf-8"?>
<!-- Generator: Adobe Illustrator 26.5.0, SVG Export Plug-In . SVG Version: 6.00 Build 0)  -->
<svg version="1.1" id="_x2014_ÎÓÈ_x5F_1" xmlns="http://www.w3.org/2000/svg" xmlns:xlink="http://www.w3.org/1999/xlink"
	 x="0px" y="0px" viewBox="0 0 362.8 306" style="enable-background:new 0 0 362.8 306;" xml:space="preserve">
<style type="text/css">
	.st0{fill:url(#SVGID_1_);}
	.st1{fill:url(#SVGID_00000052791966831127001030000003112668374425385395_);}
	.st2{fill:url(#SVGID_00000062886307084025840650000006182143142107421339_);}
	.st3{opacity:0.8;fill:#0C0F38;}
	.st4{opacity:0.8;fill:#D4088C;}
	.st5{fill:#6EE8FC;}
	.st6{fill:#D4088C;}
	.st7{fill:#6EE1F8;}
	.st8{fill:url(#SVGID_00000151508968268790657390000003939914885504977298_);}
	.st9{fill:#6DE0F6;}
	.st10{opacity:0.5;fill:#D4088C;}
	.st11{opacity:0.3;fill:#D4088C;}
	.st12{opacity:0.15;fill:#D4088C;}
	.st13{fill:url(#SVGID_00000064317654289399957910000014695423590977045647_);}
	.st14{fill:#480689;}
	.st15{fill:#267FE5;}
	.st16{fill:#38025B;}
	.st17{clip-path:url(#SVGID_00000084490322939231089680000000960508516025739437_);}
	.st18{opacity:0.5;fill:#6EE8FC;}
	.st19{opacity:0.5;fill:#25BFEC;}
	.st20{fill:url(#SVGID_00000041996583443571933210000010248464570707111042_);}
	.st21{fill:url(#SVGID_00000029022980656270523810000001645512487561046455_);}
	.st22{fill:#50DEFF;}
	.st23{opacity:0.4;clip-path:url(#SVGID_00000084490322939231089680000000960508516025739437_);fill:#0C0F38;}
	.st24{clip-path:url(#SVGID_00000166641047728501387700000015582243653336791173_);}
	.st25{fill:url(#SVGID_00000175318734900907271820000006286770343315813002_);}
	.st26{fill:url(#SVGID_00000115486807398341393400000001521499156845016243_);}
	.st27{opacity:0.4;clip-path:url(#SVGID_00000166641047728501387700000015582243653336791173_);fill:#0C0F38;}
	.st28{fill:#161242;}
</style>
<g>
	
		<linearGradient id="SVGID_1_" gradientUnits="userSpaceOnUse" x1="225.4951" y1="957.1234" x2="272.5172" y2="957.1234" gradientTransform="matrix(-0.7071 0.7071 -0.7071 -0.7071 885.0967 722.8463)">
		<stop  offset="0" style="stop-color:#D4088C"/>
		<stop  offset="4.496314e-02" style="stop-color:#CC088C"/>
		<stop  offset="0.4621" style="stop-color:#85078A"/>
		<stop  offset="0.7624" style="stop-color:#590689"/>
		<stop  offset="0.914" style="stop-color:#480689"/>
	</linearGradient>
	<circle class="st0" cx="32.2" cy="222.1" r="23.5"/>
	
		<linearGradient id="SVGID_00000144320416551940629930000013057963912266686375_" gradientUnits="userSpaceOnUse" x1="105.6948" y1="1060.762" x2="125.1674" y2="1060.762" gradientTransform="matrix(-1 0 0 -1 178.1055 1116.7761)">
		<stop  offset="0" style="stop-color:#6EE8FC"/>
		<stop  offset="0.1572" style="stop-color:#6AE2FB"/>
		<stop  offset="0.3681" style="stop-color:#5ED1F7"/>
		<stop  offset="0.6094" style="stop-color:#4BB5F1"/>
		<stop  offset="0.8716" style="stop-color:#308EE8"/>
		<stop  offset="0.9624" style="stop-color:#267FE5"/>
	</linearGradient>
	<circle style="fill:url(#SVGID_00000144320416551940629930000013057963912266686375_);" cx="62.7" cy="56" r="9.7"/>
	
		<linearGradient id="SVGID_00000021092029740288284590000007148705261904133252_" gradientUnits="userSpaceOnUse" x1="-32.2501" y1="744.5213" x2="11.5273" y2="744.5213" gradientTransform="matrix(0.8955 0.445 -0.445 0.8955 684.0695 -510.3244)">
		<stop  offset="0" style="stop-color:#6EE8FC"/>
		<stop  offset="0.1572" style="stop-color:#6AE2FB"/>
		<stop  offset="0.3681" style="stop-color:#5ED1F7"/>
		<stop  offset="0.6094" style="stop-color:#4BB5F1"/>
		<stop  offset="0.8716" style="stop-color:#308EE8"/>
		<stop  offset="0.9624" style="stop-color:#267FE5"/>
	</linearGradient>
	<circle style="fill:url(#SVGID_00000021092029740288284590000007148705261904133252_);" cx="341.6" cy="150.9" r="17.5"/>
	<path class="st3" d="M346.1,221.7c-7,1.4-14.7-0.8-17-4.9c-2.4-4.1,1.4-8.5,8.5-9.8c7-1.4,14.7,0.8,17,4.9
		C356.9,216,353.1,220.4,346.1,221.7z"/>
	<path class="st3" d="M38.5,301c-9.8,1.9-20.4-1.1-23.7-6.8c-3.3-5.7,2-11.8,11.8-13.7s20.4,1.1,23.7,6.8
		C53.5,292.9,48.3,299.1,38.5,301z"/>
	<path class="st3" d="M64.8,95.4c-3.5,0.7-7.3-0.4-8.5-2.4c-1.2-2,0.7-4.2,4.2-4.9c3.5-0.7,7.3,0.4,8.5,2.4
		C70.2,92.5,68.3,94.7,64.8,95.4z"/>
	<g>
		<circle class="st4" cx="127" cy="15.5" r="2.5"/>
		<circle class="st4" cx="83.3" cy="269.1" r="3"/>
		<path class="st5" d="M65.8,255.8c0,0.9-0.7,1.5-1.5,1.5c-0.9,0-1.5-0.7-1.5-1.5c0-0.9,0.7-1.5,1.5-1.5
			C65.1,254.3,65.8,255,65.8,255.8z"/>
		<path class="st5" d="M328.4,198.7c0,0.9-0.7,1.6-1.6,1.6c-0.9,0-1.6-0.7-1.6-1.6c0-0.9,0.7-1.6,1.6-1.6
			C327.6,197.1,328.4,197.8,328.4,198.7z"/>
		<g>
			<path class="st5" d="M32.5,90.8c0,1.2-1,2.3-2.3,2.3S28,92,28,90.8c0-1.2,1-2.3,2.3-2.3S32.5,89.6,32.5,90.8z"/>
			<path class="st5" d="M200.7,8.7c0,1.2-1,2.3-2.3,2.3c-1.2,0-2.3-1-2.3-2.3s1-2.3,2.3-2.3C199.7,6.5,200.7,7.5,200.7,8.7z"/>
			<path class="st5" d="M41.7,85.8c0,0.7-0.6,1.2-1.2,1.2c-0.7,0-1.2-0.6-1.2-1.2c0-0.7,0.6-1.2,1.2-1.2
				C41.1,84.6,41.7,85.1,41.7,85.8z"/>
		</g>
		<path class="st6" d="M256.2,16.8c0,0.8-0.7,1.5-1.5,1.5c-0.8,0-1.5-0.7-1.5-1.5c0-0.8,0.7-1.5,1.5-1.5
			C255.6,15.3,256.2,16,256.2,16.8z"/>
	</g>
	<g>
		<g>
			<polygon class="st7" points="40,164.6 39.4,162.7 43.7,161.5 42.5,157.2 44.4,156.7 46.2,162.9 			"/>
		</g>
		<g>
			<polygon class="st7" points="36.2,171.3 35.7,169.4 39.9,168.2 38.7,163.9 40.7,163.4 42.4,169.6 			"/>
		</g>
		<g>
			<polygon class="st7" points="40.2,169.1 38.5,162.9 44.7,161.2 45.2,163.1 40.9,164.3 42.1,168.6 			"/>
		</g>
	</g>
	<path class="st7" d="M187.9,21.5c-2.6,0-4.8-2.1-4.8-4.8s2.1-4.8,4.8-4.8s4.8,2.1,4.8,4.8S190.5,21.5,187.9,21.5z M187.9,14
		c-1.5,0-2.8,1.2-2.8,2.8c0,1.5,1.2,2.8,2.8,2.8c1.5,0,2.8-1.2,2.8-2.8C190.7,15.2,189.4,14,187.9,14z"/>
	<path class="st7" d="M292.3,259.7l-5.4-5.4l5.4-5.4l5.4,5.4L292.3,259.7z M289.7,254.3l2.6,2.6l2.6-2.6l-2.6-2.6L289.7,254.3z"/>
	<g>
		<rect x="306.4" y="62" transform="matrix(0.7072 -0.707 0.707 0.7072 43.2499 236.6754)" class="st6" width="2" height="8.2"/>
		
			<rect x="303.3" y="65.1" transform="matrix(0.7071 -0.7071 0.7071 0.7071 43.2706 236.7076)" class="st6" width="8.2" height="2"/>
	</g>
</g>
<path class="st6" d="M12.3,132.4c0,0.8-0.7,1.5-1.5,1.5c-0.8,0-1.5-0.7-1.5-1.5s0.7-1.5,1.5-1.5C11.7,130.9,12.3,131.6,12.3,132.4z"
	/>
<g>
	<g>
		<path class="st3" d="M174.7,273.7l-75.9-43.8c-5.4-3.1-4.7-8.6,1.5-12.2l72.9-42.1c6.2-3.6,15.7-4,21.1-0.9l75.9,43.8
			c5.4,3.1,4.7,8.6-1.5,12.2l-72.9,42.1C189.5,276.4,180.1,276.8,174.7,273.7z"/>
		
			<linearGradient id="SVGID_00000021077913624796142980000011517105395699891346_" gradientUnits="userSpaceOnUse" x1="78.3036" y1="169.3983" x2="295.8809" y2="169.3983">
			<stop  offset="0" style="stop-color:#A31FA9"/>
			<stop  offset="6.679147e-02" style="stop-color:#8B17A0"/>
			<stop  offset="0.1494" style="stop-color:#740F98"/>
			<stop  offset="0.2393" style="stop-color:#640A92"/>
			<stop  offset="0.3408" style="stop-color:#5B078F"/>
			<stop  offset="0.4785" style="stop-color:#58068E"/>
			<stop  offset="0.6264" style="stop-color:#4D22A3"/>
			<stop  offset="0.9436" style="stop-color:#3168DA"/>
			<stop  offset="1" style="stop-color:#2C75E4"/>
		</linearGradient>
		<path style="fill:url(#SVGID_00000021077913624796142980000011517105395699891346_);" d="M273.8,104.1h-37.6l-41.9-24.2
			c-5.4-3.1-14.8-2.7-21.1,0.9l-40.4,23.3H95.2v105.4h0c-0.2,2.1,1,4.1,3.6,5.6l75.9,43.8c5.4,3.1,14.8,2.7,21.1-0.9l72.9-42.1
			c3.2-1.9,5-4.2,5.1-6.5h0V104.1z"/>
		<path class="st6" d="M104.7,104.1h-9.5v105.4h0c-0.1,1.5,0.5,3,1.7,4.2c-0.8-1.1-1.2-2.3-1.1-3.5h0V104.8h9.6
			C105.2,104.5,105,104.3,104.7,104.1z"/>
		<path class="st9" d="M261.7,104.1c-0.1,0.2-0.1,0.4-0.2,0.6h11.6v105.4h0c-0.1,1.4-0.8,2.9-2.1,4.2c1.7-1.5,2.7-3.2,2.8-4.8h0
			V104.1H261.7z"/>
		<polygon class="st10" points="121.8,228.4 121.8,106.1 108.1,106.1 108.1,220.5 		"/>
		<polygon class="st11" points="130.2,233.2 130.2,114.3 126.4,114.3 126.4,231.1 		"/>
		<polygon class="st12" points="136.9,237.1 136.9,115.7 133.1,115.7 133.1,234.9 		"/>
		
			<linearGradient id="SVGID_00000115493963407637568710000012418256072486747028_" gradientUnits="userSpaceOnUse" x1="379.1692" y1="689.9637" x2="481.8009" y2="601.0821" gradientTransform="matrix(0.866 0.5 -1 0.5774 455.3345 -483.9102)">
			<stop  offset="0" style="stop-color:#8D139B"/>
			<stop  offset="0.1651" style="stop-color:#851BA1"/>
			<stop  offset="0.4284" style="stop-color:#6E33B2"/>
			<stop  offset="0.7551" style="stop-color:#4958CD"/>
			<stop  offset="1" style="stop-color:#2979E4"/>
		</linearGradient>
		<path style="fill:url(#SVGID_00000115493963407637568710000012418256072486747028_);" d="M174.7,153.5l-75.9-43.8
			c-5.4-3.1-4.7-8.6,1.5-12.2l72.9-42.1c6.2-3.6,15.7-4,21.1-0.9l75.9,43.8c5.4,3.1,4.7,8.6-1.5,12.2l-72.9,42.1
			C189.5,156.2,180.1,156.6,174.7,153.5z"/>
		<path class="st6" d="M175.6,153.5l-75.9-43.8c-5.4-3.1-4.7-8.6,1.5-12.2L174,55.5c3.1-1.8,7-2.8,10.7-2.9c-4,0.1-8.3,1-11.6,2.9
			l-72.9,42.1c-6.2,3.6-6.9,9-1.5,12.2l75.9,43.8c2.7,1.6,6.5,2.2,10.3,2.1C181.5,155.6,178.1,155,175.6,153.5z"/>
		<path class="st9" d="M270.1,98.4l-75.9-43.8c-2.7-1.6-6.5-2.2-10.3-2.1c3.5,0,6.9,0.6,9.4,2.1l75.9,43.8c5.4,3.1,4.7,8.6-1.5,12.2
			l-72.9,42.1c-3.1,1.8-6.9,2.8-10.7,2.9c4.1,0,8.3-1,11.7-2.9l72.9-42.1C274.9,107,275.5,101.5,270.1,98.4z"/>
		<path class="st14" d="M184,142.7c-2.6,0-5.1-0.5-6.9-1.6l-56.5-32.6c-1.8-1.1-2.8-2.5-2.8-4.2c0-1.9,1.4-3.9,4-5.3L176,67.7
			c4.7-2.7,11.8-3,15.9-0.6l56.5,32.6c1.8,1.1,2.8,2.5,2.8,4.2c0,1.9-1.4,3.9-4,5.3L193,140.5C190.4,141.9,187.1,142.7,184,142.7z
			 M185,65.9c-3,0-6.2,0.7-8.7,2.2L122,99.4c-2.4,1.4-3.7,3.1-3.7,4.9c0,1.4,0.9,2.7,2.6,3.7l56.5,32.6c3.9,2.3,10.9,2,15.4-0.6
			l54.2-31.3c2.4-1.4,3.7-3.1,3.7-4.9c0-1.4-0.9-2.7-2.6-3.7l-56.5-32.6C189.8,66.4,187.5,65.9,185,65.9z"/>
		<g>
			<g>
				<path class="st9" d="M197.9,161l64.2-37.1c0.6-0.3,1.1-1.2,1.1-2v-1.1c0-0.8-0.5-1.1-1.1-0.8l-64.2,37.1c-0.6,0.3-1.1,1.2-1.1,2
					v1.1C196.9,161,197.3,161.3,197.9,161z"/>
				<path class="st15" d="M260.7,123.1c0.6-0.3,1.1-1.2,1.1-2v-0.9l0.3-0.2c0.6-0.3,1.1,0,1.1,0.8v1.1c0,0.8-0.5,1.7-1.1,2
					L197.9,161c-0.6,0.3-1.1,0-1.1-0.8V160L260.7,123.1z"/>
			</g>
			<g>
				<path class="st9" d="M197.9,172.3l64.2-37.1c0.6-0.3,1.1-1.2,1.1-2v-1.1c0-0.8-0.5-1.1-1.1-0.8l-64.2,37.1
					c-0.6,0.3-1.1,1.2-1.1,2v1.1C196.9,172.3,197.3,172.6,197.9,172.3z"/>
				<path class="st15" d="M260.7,134.4c0.6-0.3,1.1-1.2,1.1-2v-0.9l0.3-0.2c0.6-0.3,1.1,0,1.1,0.8v1.1c0,0.8-0.5,1.7-1.1,2
					l-64.2,37.1c-0.6,0.3-1.1,0-1.1-0.8v-0.2L260.7,134.4z"/>
			</g>
			<g>
				<path class="st9" d="M197.9,183.6l64.2-37.1c0.6-0.3,1.1-1.2,1.1-2v-1.1c0-0.8-0.5-1.1-1.1-0.8l-64.2,37.1
					c-0.6,0.3-1.1,1.2-1.1,2v1.1C196.9,183.6,197.3,183.9,197.9,183.6z"/>
				<path class="st15" d="M260.7,145.7c0.6-0.3,1.1-1.2,1.1-2v-0.9l0.3-0.2c0.6-0.3,1.1,0,1.1,0.8v1.1c0,0.8-0.5,1.7-1.1,2
					l-64.2,37.1c-0.6,0.3-1.1,0-1.1-0.8v-0.2L260.7,145.7z"/>
			</g>
			<g>
				<path class="st9" d="M197.9,194.9l64.2-37.1c0.6-0.3,1.1-1.2,1.1-2v-1.1c0-0.8-0.5-1.1-1.1-0.8L197.9,191
					c-0.6,0.3-1.1,1.2-1.1,2v1.1C196.9,194.9,197.3,195.2,197.9,194.9z"/>
				<path class="st15" d="M260.7,157c0.6-0.3,1.1-1.2,1.1-2v-0.9l0.3-0.2c0.6-0.3,1.1,0,1.1,0.8v1.1c0,0.8-0.5,1.7-1.1,2l-64.2,37.1
					c-0.6,0.3-1.1,0-1.1-0.8v-0.2L260.7,157z"/>
			</g>
			<g>
				<path class="st9" d="M197.9,206.2l64.2-37.1c0.6-0.3,1.1-1.2,1.1-2V166c0-0.8-0.5-1.1-1.1-0.8l-64.2,37.1
					c-0.6,0.3-1.1,1.2-1.1,2v1.1C196.9,206.2,197.3,206.5,197.9,206.2z"/>
				<path class="st15" d="M260.7,168.2c0.6-0.3,1.1-1.2,1.1-2v-0.9l0.3-0.2c0.6-0.3,1.1,0,1.1,0.8v1.1c0,0.8-0.5,1.7-1.1,2
					l-64.2,37.1c-0.6,0.3-1.1,0-1.1-0.8v-0.2L260.7,168.2z"/>
			</g>
			<g>
				<path class="st9" d="M197.9,217.5l64.2-37.1c0.6-0.3,1.1-1.2,1.1-2v-1.1c0-0.8-0.5-1.1-1.1-0.8l-64.2,37.1
					c-0.6,0.3-1.1,1.2-1.1,2v1.1C196.9,217.5,197.3,217.8,197.9,217.5z"/>
				<path class="st15" d="M260.7,179.5c0.6-0.3,1.1-1.2,1.1-2v-0.9l0.3-0.2c0.6-0.3,1.1,0,1.1,0.8v1.1c0,0.8-0.5,1.7-1.1,2
					l-64.2,37.1c-0.6,0.3-1.1,0-1.1-0.8v-0.2L260.7,179.5z"/>
			</g>
			<g>
				<path class="st9" d="M197.9,228.8l64.2-37.1c0.6-0.3,1.1-1.2,1.1-2v-1.1c0-0.8-0.5-1.1-1.1-0.8l-64.2,37.1
					c-0.6,0.3-1.1,1.2-1.1,2v1.1C196.9,228.8,197.3,229.1,197.9,228.8z"/>
				<path class="st15" d="M260.7,190.8c0.6-0.3,1.1-1.2,1.1-2V188l0.3-0.2c0.6-0.3,1.1,0,1.1,0.8v1.1c0,0.8-0.5,1.7-1.1,2
					l-64.2,37.1c-0.6,0.3-1.1,0-1.1-0.8v-0.2L260.7,190.8z"/>
			</g>
			<g>
				<path class="st9" d="M197.9,240.1l64.2-37.1c0.6-0.3,1.1-1.2,1.1-2v-1.1c0-0.8-0.5-1.1-1.1-0.8l-64.2,37.1
					c-0.6,0.3-1.1,1.2-1.1,2v1.1C196.9,240.1,197.3,240.4,197.9,240.1z"/>
				<path class="st15" d="M260.7,202.1c0.6-0.3,1.1-1.2,1.1-2v-0.9l0.3-0.2c0.6-0.3,1.1,0,1.1,0.8v1.1c0,0.8-0.5,1.7-1.1,2
					l-64.2,37.1c-0.6,0.3-1.1,0-1.1-0.8v-0.2L260.7,202.1z"/>
			</g>
			<g>
				<path class="st9" d="M197.9,251.4l64.2-37.1c0.6-0.3,1.1-1.2,1.1-2v-1.1c0-0.8-0.5-1.1-1.1-0.8l-64.2,37.1
					c-0.6,0.3-1.1,1.2-1.1,2v1.1C196.9,251.3,197.3,251.7,197.9,251.4z"/>
				<path class="st15" d="M260.7,213.4c0.6-0.3,1.1-1.2,1.1-2v-0.9l0.3-0.2c0.6-0.3,1.1,0,1.1,0.8v1.1c0,0.8-0.5,1.7-1.1,2
					l-64.2,37.1c-0.6,0.3-1.1,0-1.1-0.8v-0.2L260.7,213.4z"/>
			</g>
		</g>
		<g>
			<g>
				<path class="st9" d="M186.2,162.8c0,1-0.8,1.7-1.7,1.7s-1.7-0.8-1.7-1.7c0-1,0.8-1.7,1.7-1.7S186.2,161.9,186.2,162.8z"/>
				<path class="st15" d="M184.5,163.9c-0.8,0-1.5-0.6-1.7-1.4c0,0.1,0,0.2,0,0.3c0,1,0.8,1.7,1.7,1.7c1,0,1.7-0.8,1.7-1.7
					c0-0.1,0-0.2,0-0.3C186,163.3,185.3,163.9,184.5,163.9z"/>
			</g>
			<g>
				<path class="st9" d="M186.2,174.1c0,1-0.8,1.7-1.7,1.7s-1.7-0.8-1.7-1.7s0.8-1.7,1.7-1.7S186.2,173.2,186.2,174.1z"/>
				<path class="st15" d="M184.5,175.2c-0.8,0-1.5-0.6-1.7-1.4c0,0.1,0,0.2,0,0.3c0,1,0.8,1.7,1.7,1.7c1,0,1.7-0.8,1.7-1.7
					c0-0.1,0-0.2,0-0.3C186,174.6,185.3,175.2,184.5,175.2z"/>
			</g>
			<g>
				<path class="st9" d="M186.2,185.4c0,1-0.8,1.7-1.7,1.7s-1.7-0.8-1.7-1.7c0-1,0.8-1.7,1.7-1.7S186.2,184.5,186.2,185.4z"/>
				<path class="st15" d="M184.5,186.5c-0.8,0-1.5-0.6-1.7-1.4c0,0.1,0,0.2,0,0.3c0,1,0.8,1.7,1.7,1.7c1,0,1.7-0.8,1.7-1.7
					c0-0.1,0-0.2,0-0.3C186,185.9,185.3,186.5,184.5,186.5z"/>
			</g>
			<g>
				<path class="st9" d="M186.2,196.7c0,1-0.8,1.7-1.7,1.7s-1.7-0.8-1.7-1.7c0-1,0.8-1.7,1.7-1.7S186.2,195.8,186.2,196.7z"/>
				<path class="st15" d="M184.5,197.8c-0.8,0-1.5-0.6-1.7-1.4c0,0.1,0,0.2,0,0.3c0,1,0.8,1.7,1.7,1.7c1,0,1.7-0.8,1.7-1.7
					c0-0.1,0-0.2,0-0.3C186,197.2,185.3,197.8,184.5,197.8z"/>
			</g>
			<g>
				<path class="st9" d="M186.2,208c0,1-0.8,1.7-1.7,1.7s-1.7-0.8-1.7-1.7c0-1,0.8-1.7,1.7-1.7S186.2,207.1,186.2,208z"/>
				<path class="st15" d="M184.5,209.1c-0.8,0-1.5-0.6-1.7-1.4c0,0.1,0,0.2,0,0.3c0,1,0.8,1.7,1.7,1.7c1,0,1.7-0.8,1.7-1.7
					c0-0.1,0-0.2,0-0.3C186,208.5,185.3,209.1,184.5,209.1z"/>
			</g>
			<g>
				<path class="st9" d="M186.2,219.3c0,1-0.8,1.7-1.7,1.7s-1.7-0.8-1.7-1.7c0-1,0.8-1.7,1.7-1.7S186.2,218.4,186.2,219.3z"/>
				<path class="st15" d="M184.5,220.4c-0.8,0-1.5-0.6-1.7-1.4c0,0.1,0,0.2,0,0.3c0,1,0.8,1.7,1.7,1.7c1,0,1.7-0.8,1.7-1.7
					c0-0.1,0-0.2,0-0.3C186,219.8,185.3,220.4,184.5,220.4z"/>
			</g>
			<g>
				<path class="st9" d="M186.2,230.6c0,1-0.8,1.7-1.7,1.7s-1.7-0.8-1.7-1.7c0-1,0.8-1.7,1.7-1.7S186.2,229.7,186.2,230.6z"/>
				<path class="st15" d="M184.5,231.7c-0.8,0-1.5-0.6-1.7-1.4c0,0.1,0,0.2,0,0.3c0,1,0.8,1.7,1.7,1.7c1,0,1.7-0.8,1.7-1.7
					c0-0.1,0-0.2,0-0.3C186,231.1,185.3,231.7,184.5,231.7z"/>
			</g>
			<g>
				<path class="st9" d="M186.2,241.9c0,1-0.8,1.7-1.7,1.7s-1.7-0.8-1.7-1.7c0-1,0.8-1.7,1.7-1.7S186.2,241,186.2,241.9z"/>
				<path class="st15" d="M184.5,243c-0.8,0-1.5-0.6-1.7-1.4c0,0.1,0,0.2,0,0.3c0,1,0.8,1.7,1.7,1.7c1,0,1.7-0.8,1.7-1.7
					c0-0.1,0-0.2,0-0.3C186,242.4,185.3,243,184.5,243z"/>
			</g>
			<g>
				<path class="st9" d="M186.2,253.2c0,1-0.8,1.7-1.7,1.7s-1.7-0.8-1.7-1.7c0-1,0.8-1.7,1.7-1.7S186.2,252.3,186.2,253.2z"/>
				<path class="st15" d="M184.5,254.3c-0.8,0-1.5-0.6-1.7-1.4c0,0.1,0,0.2,0,0.3c0,1,0.8,1.7,1.7,1.7c1,0,1.7-0.8,1.7-1.7
					c0-0.1,0-0.2,0-0.3C186,253.7,185.3,254.3,184.5,254.3z"/>
			</g>
		</g>
	</g>
	<polygon class="st14" points="220.9,124.2 149.9,83.1 150.1,82.7 221.2,123.7 	"/>
	<g>
		<g>
			<path class="st16" d="M113.6,210.3l2.6,1.5c1.3,0.8,2.4,0,2.4-1.8v-69.3c0-1.8-1.1-3.8-2.4-4.6l-2.6-1.5c-1.3-0.8-2.4,0-2.4,1.8
				v69.3C111.2,207.5,112.2,209.6,113.6,210.3z"/>
			<g>
				<defs>
					<path id="SVGID_00000046307162647649177050000000842748952522113937_" d="M70.9,241.3l45.3-29.5c1.3,0.8,2.4,0,2.4-1.8v-69.3
						c0-1.8-1.1-3.8-2.4-4.6l-2.6-1.5c-1.3-0.8-2.4,0-2.4,1.8l-42.8,19.5C68.4,157.7,69.5,240.5,70.9,241.3z"/>
				</defs>
				<clipPath id="SVGID_00000165946953482173444100000000884193837698190267_">
					<use xlink:href="#SVGID_00000046307162647649177050000000842748952522113937_"  style="overflow:visible;"/>
				</clipPath>
				<g style="clip-path:url(#SVGID_00000165946953482173444100000000884193837698190267_);">
					<g>
						<polygon class="st18" points="82.3,223.1 125.8,198 125.8,129.7 82.3,154.9 						"/>
						<polygon class="st19" points="86,225.3 129.6,200.1 129.6,131.9 86,157 						"/>
						<polygon class="st18" points="125.8,129.7 129.6,131.9 86,157 82.3,154.9 						"/>
						<polygon class="st18" points="125.8,198 129.6,200.1 86,225.3 82.3,223.1 						"/>
					</g>
					<g>
						
							<linearGradient id="SVGID_00000139987515439899111230000007616727962252643511_" gradientUnits="userSpaceOnUse" x1="1704.9551" y1="176.7986" x2="1773.5768" y2="207.343" gradientTransform="matrix(-1 0 0 1 1818.0552 0)">
							<stop  offset="0" style="stop-color:#A31FA9"/>
							<stop  offset="6.679147e-02" style="stop-color:#8B17A0"/>
							<stop  offset="0.1494" style="stop-color:#740F98"/>
							<stop  offset="0.2393" style="stop-color:#640A92"/>
							<stop  offset="0.3408" style="stop-color:#5B078F"/>
							<stop  offset="0.4785" style="stop-color:#58068E"/>
							<stop  offset="0.6264" style="stop-color:#4D22A3"/>
							<stop  offset="0.9436" style="stop-color:#3168DA"/>
							<stop  offset="1" style="stop-color:#2C75E4"/>
						</linearGradient>
						<path style="fill:url(#SVGID_00000139987515439899111230000007616727962252643511_);" d="M81.3,151.1l2.4-1.4l0,0
							c0.4-0.2,1-0.2,1.6,0.1l2.6,1.5c1.3,0.8,2.4,2.8,2.4,4.6v69.3c0,1-0.3,1.6-0.8,1.9l0,0l-2.3,1.4l0.5-1.6l-2.3-1.3
							c-1.3-0.8-2.4-2.8-2.4-4.6v-69.3c0,0,0,0,0,0L81.3,151.1z"/>
						<path class="st9" d="M87.8,151.3l-2.6-1.5c-0.5-0.3-0.9-0.3-1.3-0.2c0.2,0,0.5,0.1,0.7,0.3l2.6,1.5c1.4,0.8,2.5,2.9,2.5,4.7
							v70.7c0,0,0,0.1,0,0.1c0.3-0.4,0.5-0.9,0.5-1.7v-69.3C90.2,154.2,89.1,152.1,87.8,151.3z"/>
						
							<linearGradient id="SVGID_00000123399634030914434150000001052663573733304500_" gradientUnits="userSpaceOnUse" x1="1733.078" y1="189.858" x2="1642.1046" y2="189.858" gradientTransform="matrix(-1 0 0 1 1818.0552 0)">
							<stop  offset="0" style="stop-color:#A31FA9"/>
							<stop  offset="6.679147e-02" style="stop-color:#8B17A0"/>
							<stop  offset="0.1494" style="stop-color:#740F98"/>
							<stop  offset="0.2393" style="stop-color:#640A92"/>
							<stop  offset="0.3408" style="stop-color:#5B078F"/>
							<stop  offset="0.4785" style="stop-color:#58068E"/>
							<stop  offset="0.6264" style="stop-color:#4D22A3"/>
							<stop  offset="0.9436" style="stop-color:#3168DA"/>
							<stop  offset="1" style="stop-color:#2C75E4"/>
						</linearGradient>
						<path style="fill:url(#SVGID_00000123399634030914434150000001052663573733304500_);" d="M82.9,227l2.6,1.5
							c1.3,0.8,2.4,0,2.4-1.8v-69.3c0-1.8-1.1-3.8-2.4-4.6l-2.6-1.5c-1.3-0.8-2.4,0-2.4,1.8v69.3C80.5,224.2,81.5,226.2,82.9,227z"
							/>
					</g>
				</g>
				<g style="clip-path:url(#SVGID_00000165946953482173444100000000884193837698190267_);">
					<g>
						<polygon class="st22" points="121.4,178.6 116.7,175.9 116.7,169.2 121.4,171.8 						"/>
						<polygon class="st22" points="121.4,182 121.4,189.2 116.7,186.5 116.7,179.3 						"/>
						<polygon class="st22" points="101.9,158.1 101.9,163.7 100.3,164.6 100.3,159 						"/>
						<polygon class="st22" points="105.6,161.6 104,162.5 104,156.9 105.6,156 						"/>
						<polygon class="st22" points="97.1,188.2 97.1,203.9 116.4,192.8 121.3,195.6 92.5,212.2 92.5,185.5 						"/>
						<polygon class="st22" points="116.7,163.4 116.7,155.1 107.7,160.4 107.7,154.8 121.4,146.9 121.4,166.1 						"/>
						<polygon class="st22" points="92.5,179 97.1,181.6 97.1,184.8 92.5,182.1 						"/>
						<polygon class="st22" points="98.2,165.8 97.1,166.4 97.1,175.2 92.5,172.5 92.5,163.5 98.2,160.2 						"/>
					</g>
					<polygon class="st22" points="111.2,165 114.4,163.2 114.4,159.4 111.2,161.3 					"/>
					<polygon class="st22" points="105.6,168.3 108.8,166.4 108.8,162.7 105.6,164.6 					"/>
					<polygon class="st22" points="105.6,174.1 108.8,172.2 108.8,168.5 105.6,170.3 					"/>
					<polygon class="st22" points="99.9,199 103.2,197.2 103.2,193.4 99.9,195.3 					"/>
					<polygon class="st22" points="111.2,170.8 114.4,169 114.4,165.2 111.2,167.1 					"/>
					<polygon class="st22" points="99.9,171.5 103.2,169.7 103.2,165.9 99.9,167.8 					"/>
				</g>
				<path style="opacity:0.4;clip-path:url(#SVGID_00000165946953482173444100000000884193837698190267_);fill:#0C0F38;" d="
					M112.3,137.5l3.8,2.1v68.3l2.4-1.4l2.8-23.1v-46.7c0,0-5.1-1.2-5-1.1c0.1,0.1-0.8,0.1-0.8,0.1L112.3,137.5z"/>
			</g>
		</g>
	</g>
	<g>
		<g>
			<path class="st16" d="M134.9,222.5l2.6,1.5c1.3,0.8,2.4,0,2.4-1.8v-69.3c0-1.8-1.1-3.8-2.4-4.6l-2.6-1.5c-1.3-0.8-2.4,0-2.4,1.8
				v69.3C132.5,219.7,133.6,221.7,134.9,222.5z"/>
			<g>
				<defs>
					<path id="SVGID_00000019657469442654109870000007449407648636278663_" d="M92.2,253.5l45.3-29.5c1.3,0.8,2.4,0,2.4-1.8v-69.3
						c0-1.8-1.1-3.8-2.4-4.6l-2.6-1.5c-1.3-0.8-2.4,0-2.4,1.8l-42.8,19.5C89.8,169.9,90.9,252.7,92.2,253.5z"/>
				</defs>
				<clipPath id="SVGID_00000169526363238694957550000008280038487532112789_">
					<use xlink:href="#SVGID_00000019657469442654109870000007449407648636278663_"  style="overflow:visible;"/>
				</clipPath>
				<g style="clip-path:url(#SVGID_00000169526363238694957550000008280038487532112789_);">
					<g>
						<polygon class="st18" points="103.6,235.3 147.2,210.2 147.2,141.9 103.6,167 						"/>
						<polygon class="st19" points="107.4,237.4 151,212.3 151,144.1 107.4,169.2 						"/>
						<polygon class="st18" points="147.2,141.9 151,144.1 107.4,169.2 103.6,167 						"/>
						<polygon class="st18" points="147.2,210.2 151,212.3 107.4,237.4 103.6,235.3 						"/>
					</g>
					<g>
						
							<linearGradient id="SVGID_00000154391281989062899820000017199386036627061379_" gradientUnits="userSpaceOnUse" x1="1683.5736" y1="188.9562" x2="1752.1953" y2="219.5007" gradientTransform="matrix(-1 0 0 1 1818.0552 0)">
							<stop  offset="0" style="stop-color:#A31FA9"/>
							<stop  offset="6.679147e-02" style="stop-color:#8B17A0"/>
							<stop  offset="0.1494" style="stop-color:#740F98"/>
							<stop  offset="0.2393" style="stop-color:#640A92"/>
							<stop  offset="0.3408" style="stop-color:#5B078F"/>
							<stop  offset="0.4785" style="stop-color:#58068E"/>
							<stop  offset="0.6264" style="stop-color:#4D22A3"/>
							<stop  offset="0.9436" style="stop-color:#3168DA"/>
							<stop  offset="1" style="stop-color:#2C75E4"/>
						</linearGradient>
						<path style="fill:url(#SVGID_00000154391281989062899820000017199386036627061379_);" d="M102.7,163.3l2.4-1.4l0,0
							c0.4-0.2,1-0.2,1.6,0.1l2.6,1.5c1.3,0.8,2.4,2.8,2.4,4.6v69.3c0,1-0.3,1.6-0.8,1.9l0,0l-2.3,1.4l0.5-1.6l-2.3-1.3
							c-1.3-0.8-2.4-2.8-2.4-4.6v-69.3c0,0,0,0,0,0L102.7,163.3z"/>
						<path class="st9" d="M109.2,163.5l-2.6-1.5c-0.5-0.3-0.9-0.3-1.3-0.2c0.2,0,0.5,0.1,0.7,0.3l2.6,1.5c1.4,0.8,2.5,2.9,2.5,4.7
							V239c0,0,0,0.1,0,0.1c0.3-0.4,0.5-0.9,0.5-1.7v-69.3C111.6,166.3,110.5,164.3,109.2,163.5z"/>
						
							<linearGradient id="SVGID_00000120550183052005486190000007241443092372031361_" gradientUnits="userSpaceOnUse" x1="1711.6965" y1="202.0156" x2="1620.723" y2="202.0156" gradientTransform="matrix(-1 0 0 1 1818.0552 0)">
							<stop  offset="0" style="stop-color:#A31FA9"/>
							<stop  offset="6.679147e-02" style="stop-color:#8B17A0"/>
							<stop  offset="0.1494" style="stop-color:#740F98"/>
							<stop  offset="0.2393" style="stop-color:#640A92"/>
							<stop  offset="0.3408" style="stop-color:#5B078F"/>
							<stop  offset="0.4785" style="stop-color:#58068E"/>
							<stop  offset="0.6264" style="stop-color:#4D22A3"/>
							<stop  offset="0.9436" style="stop-color:#3168DA"/>
							<stop  offset="1" style="stop-color:#2C75E4"/>
						</linearGradient>
						<path style="fill:url(#SVGID_00000120550183052005486190000007241443092372031361_);" d="M104.2,239.1l2.6,1.5
							c1.3,0.8,2.4,0,2.4-1.8v-69.3c0-1.8-1.1-3.8-2.4-4.6l-2.6-1.5c-1.3-0.8-2.4,0-2.4,1.8v69.3
							C101.8,236.3,102.9,238.4,104.2,239.1z"/>
					</g>
				</g>
				<g style="clip-path:url(#SVGID_00000169526363238694957550000008280038487532112789_);">
					<g>
						<polygon class="st22" points="142.7,190.8 138.1,188.1 138.1,181.3 142.7,184 						"/>
						<polygon class="st22" points="142.7,194.2 142.7,201.4 138.1,198.7 138.1,191.5 						"/>
						<polygon class="st22" points="123.3,170.3 123.3,175.8 121.7,176.8 121.7,171.2 						"/>
						<polygon class="st22" points="126.9,173.7 125.3,174.6 125.3,169.1 126.9,168.1 						"/>
						<polygon class="st22" points="118.5,200.4 118.5,216.1 137.8,204.9 142.7,207.7 113.9,224.3 113.9,197.7 						"/>
						<polygon class="st22" points="138.1,175.6 138.1,167.3 129,172.5 129,166.9 142.7,159 142.7,178.3 						"/>
						<polygon class="st22" points="113.9,191.1 118.5,193.8 118.5,196.9 113.9,194.3 						"/>
						<polygon class="st22" points="119.6,178 118.5,178.6 118.5,187.4 113.9,184.7 113.9,175.7 119.6,172.4 						"/>
					</g>
					<polygon class="st22" points="132.6,177.2 135.8,175.3 135.8,171.6 132.6,173.5 					"/>
					<polygon class="st22" points="126.9,180.4 130.2,178.6 130.2,174.8 126.9,176.7 					"/>
					<polygon class="st22" points="126.9,186.2 130.2,184.4 130.2,180.6 126.9,182.5 					"/>
					<polygon class="st22" points="121.3,211.2 124.6,209.3 124.6,205.6 121.3,207.5 					"/>
					<polygon class="st22" points="132.6,183 135.8,181.1 135.8,177.4 132.6,179.3 					"/>
					<polygon class="st22" points="121.3,183.7 124.6,181.8 124.6,178.1 121.3,180 					"/>
				</g>
				<path style="opacity:0.4;clip-path:url(#SVGID_00000169526363238694957550000008280038487532112789_);fill:#0C0F38;" d="
					M133.7,149.7l3.8,2.1v68.3l2.4-1.4l2.8-23.1v-46.7c0,0-5.1-1.2-5-1.1c0.1,0.1-0.8,0.1-0.8,0.1L133.7,149.7z"/>
			</g>
		</g>
	</g>
	<g>
		<g>
			<path class="st28" d="M159.8,236.7c-0.3,0-0.7-0.1-1.1-0.3l-2.6-1.5c-1.4-0.8-2.5-3-2.5-4.8v-69.3c0-1,0.4-1.8,1-2.2
				c0.5-0.3,1.2-0.3,1.8,0.1l2.6,1.5c1.4,0.8,2.5,3,2.5,4.8v69.3c0,1-0.4,1.8-1,2.2C160.4,236.6,160.1,236.7,159.8,236.7z
				 M156.5,234.4l2.6,1.5c0.5,0.3,1,0.3,1.3,0.1c0.4-0.3,0.7-0.9,0.7-1.7V165c0-1.7-1-3.6-2.3-4.4l-2.6-1.5c-0.5-0.3-1-0.3-1.3-0.1
				c-0.4,0.3-0.7,0.9-0.7,1.7v69.3C154.2,231.7,155.2,233.7,156.5,234.4L156.5,234.4z"/>
		</g>
	</g>
</g>
</svg>
